HIERARCHY
ROOT newVegas:Hips
{
	OFFSET 0.000000 96.479958 0.000000
	CHANNELS 6 Xposition Yposition Zposition Xrotation Yrotation Zrotation
	JOINT newVegas:Pelvis
	{
		OFFSET 0.000000 0.000000 0.000000
		CHANNELS 3 Xrotation Yrotation Zrotation
		JOINT newVegas:LeftUpLeg
		{
			OFFSET 18.735201 -5.666702 -4.541200
			CHANNELS 3 Xrotation Yrotation Zrotation
			JOINT newVegas:LeftLeg
			{
				OFFSET -0.021200 -31.938179 0.493100
				CHANNELS 3 Xrotation Yrotation Zrotation
				JOINT newVegas:LeftFoot
				{
					OFFSET 0.021200 -31.938179 -4.336299
					CHANNELS 3 Xrotation Yrotation Zrotation
					JOINT newVegas:LeftToeBase
					{
						OFFSET 0.943001 -26.722000 15.023500
						CHANNELS 3 Xrotation Yrotation Zrotation
						End Site
						{
							OFFSET 0.000000 30.670183 0.000000
						}
					}
				}
				JOINT newVegas:Left_PantLeg
				{
					OFFSET 0.663870 -9.044666 -1.108900
					CHANNELS 3 Xrotation Yrotation Zrotation
					End Site
					{
						OFFSET 1.415995 20.635357 0.000000
					}
				}
			}
		}
		JOINT newVegas:RightUpLeg
		{
			OFFSET -18.735201 -5.666702 -4.541200
			CHANNELS 3 Xrotation Yrotation Zrotation
			JOINT newVegas:RightLeg
			{
				OFFSET 0.018946 -31.938133 0.493100
				CHANNELS 3 Xrotation Yrotation Zrotation
				JOINT newVegas:RightFoot
				{
					OFFSET -0.018946 -31.938126 -4.336299
					CHANNELS 3 Xrotation Yrotation Zrotation
					JOINT newVegas:RightToeBase
					{
						OFFSET -0.943001 -26.722004 15.023500
						CHANNELS 3 Xrotation Yrotation Zrotation
						End Site
						{
							OFFSET 0.000000 30.670187 0.000000
						}
					}
				}
				JOINT newVegas:Right_PantLeg
				{
					OFFSET -0.661674 -9.044716 -1.108900
					CHANNELS 3 Xrotation Yrotation Zrotation
					End Site
					{
						OFFSET -1.415958 20.635269 0.000000
					}
				}
			}
		}
	}
	JOINT newVegas:Spine
	{
		OFFSET 0.000000 10.199997 -0.299500
		CHANNELS 3 Xrotation Yrotation Zrotation
		JOINT newVegas:Spine1
		{
			OFFSET 0.000000 11.900002 -1.516600
			CHANNELS 3 Xrotation Yrotation Zrotation
			JOINT newVegas:Spine2
			{
				OFFSET 0.000000 13.600006 -2.842500
				CHANNELS 3 Xrotation Yrotation Zrotation
				JOINT newVegas:Neck
				{
					OFFSET 0.000000 9.624100 -2.890100
					CHANNELS 3 Xrotation Yrotation Zrotation
					JOINT newVegas:Head
					{
						OFFSET 0.000000 14.068802 -1.351900
						CHANNELS 3 Xrotation Yrotation Zrotation
						JOINT newVegas:Hair_Back
						{
							OFFSET 0.000000 3.231903 -17.524799
							CHANNELS 3 Xrotation Yrotation Zrotation
							End Site
							{
								OFFSET 0.000000 19.849884 0.000000
							}
						}
						JOINT newVegas:Hair_Front
						{
							OFFSET 0.000000 31.260406 4.573800
							CHANNELS 3 Xrotation Yrotation Zrotation
							JOINT newVegas:Hair_Front1
							{
								OFFSET 0.000000 2.284103 11.993300
								CHANNELS 3 Xrotation Yrotation Zrotation
								JOINT newVegas:Hair_Front2
								{
									OFFSET 0.000000 2.284103 11.993300
									CHANNELS 3 Xrotation Yrotation Zrotation
									End Site
									{
										OFFSET 0.000000 12.208862 0.000000
									}
								}
							}
						}
						JOINT newVegas:Jowel
						{
							OFFSET 0.000000 -7.458206 6.864100
							CHANNELS 3 Xrotation Yrotation Zrotation
							End Site
							{
								OFFSET 0.000000 19.849884 0.000000
							}
						}
					}
				}
				JOINT newVegas:LeftShoulder
				{
					OFFSET 15.263000 10.923401 -0.547700
					CHANNELS 3 Xrotation Yrotation Zrotation
					JOINT newVegas:LeftArm
					{
						OFFSET 25.438599 -2.830597 -13.032500
						CHANNELS 3 Xrotation Yrotation Zrotation
						JOINT newVegas:LeftForeArm
						{
							OFFSET 29.960503 0.000000 0.000000
							CHANNELS 3 Xrotation Yrotation Zrotation
							JOINT newVegas:LeftHand
							{
								OFFSET 27.849251 0.000000 0.000000
								CHANNELS 3 Xrotation Yrotation Zrotation
								JOINT newVegas:LeftHandThumb1
								{
									OFFSET 4.487587 -3.305161 6.305391
									CHANNELS 3 Xrotation Yrotation Zrotation
									JOINT newVegas:LeftHandThumb2
									{
										OFFSET 5.480453 -3.164139 3.164143
										CHANNELS 3 Xrotation Yrotation Zrotation
										JOINT newVegas:LeftHandThumb3
										{
											OFFSET 5.159721 -2.978973 2.978967
											CHANNELS 3 Xrotation Yrotation Zrotation
											End Site
											{
												OFFSET 2.494507 5.926697 1.738678
											}
										}
									}
								}
								JOINT newVegas:LeftHandIndex1
								{
									OFFSET 18.578728 -0.527832 5.208049
									CHANNELS 3 Xrotation Yrotation Zrotation
									JOINT newVegas:LeftHandIndex2
									{
										OFFSET 3.192009 0.000000 0.000000
										CHANNELS 3 Xrotation Yrotation Zrotation
										JOINT newVegas:LeftHandIndex3
										{
											OFFSET 3.835129 0.000000 0.000000
											CHANNELS 3 Xrotation Yrotation Zrotation
											End Site
											{
												OFFSET -0.034599 3.816971 0.371180
											}
										}
									}
								}
								JOINT newVegas:LeftHandMiddle1
								{
									OFFSET 18.476105 0.000000 0.000000
									CHANNELS 3 Xrotation Yrotation Zrotation
									JOINT newVegas:LeftHandMiddle2
									{
										OFFSET 3.324875 0.000000 0.000000
										CHANNELS 3 Xrotation Yrotation Zrotation
										JOINT newVegas:LeftHandMiddle3
										{
											OFFSET 4.596550 0.000000 0.000000
											CHANNELS 3 Xrotation Yrotation Zrotation
											End Site
											{
												OFFSET 0.057701 4.578827 0.399218
											}
										}
									}
								}
								JOINT newVegas:LeftHandRing1
								{
									OFFSET 17.732719 0.121887 -4.201567
									CHANNELS 3 Xrotation Yrotation Zrotation
									JOINT newVegas:LeftHandRing2
									{
										OFFSET 2.733170 0.000000 0.000000
										CHANNELS 3 Xrotation Yrotation Zrotation
										JOINT newVegas:LeftHandRing3
										{
											OFFSET 3.178268 0.000000 0.000000
											CHANNELS 3 Xrotation Yrotation Zrotation
											End Site
											{
												OFFSET 0.119102 3.170624 0.185394
											}
										}
									}
								}
								JOINT newVegas:LeftHandPinky1
								{
									OFFSET 15.989624 -0.606689 -7.535461
									CHANNELS 3 Xrotation Yrotation Zrotation
									JOINT newVegas:LeftHandPinky2
									{
										OFFSET 2.538986 0.000000 0.000000
										CHANNELS 3 Xrotation Yrotation Zrotation
										JOINT newVegas:LeftHandPinky3
										{
											OFFSET 2.593102 0.000000 0.000000
											CHANNELS 3 Xrotation Yrotation Zrotation
											End Site
											{
												OFFSET -0.150902 2.584198 0.152708
											}
										}
									}
								}
							}
							JOINT newVegas:Left_Sleeve
							{
								OFFSET 0.267448 -0.649796 0.577675
								CHANNELS 3 Xrotation Yrotation Zrotation
								End Site
								{
									OFFSET 0.000000 15.991241 0.000000
								}
							}
							JOINT newVegas:Left_CapeC
							{
								OFFSET 15.715958 -8.608795 -6.935905
								CHANNELS 3 Xrotation Yrotation Zrotation
								JOINT newVegas:Left_CapeC1
								{
									OFFSET 0.000000 -8.688499 0.000000
									CHANNELS 3 Xrotation Yrotation Zrotation
									End Site
									{
										OFFSET 0.000000 8.688499 0.000000
									}
								}
							}
						}
						JOINT newVegas:Left_CapeB
						{
							OFFSET 26.118385 -8.608795 -7.079235
							CHANNELS 3 Xrotation Yrotation Zrotation
							JOINT newVegas:Left_CapeB1
							{
								OFFSET 0.000000 -8.688499 0.000000
								CHANNELS 3 Xrotation Yrotation Zrotation
								End Site
								{
									OFFSET 0.000000 8.688499 0.000000
								}
							}
						}
						JOINT newVegas:Left_CapeA
						{
							OFFSET 5.115639 -8.608795 -10.395809
							CHANNELS 3 Xrotation Yrotation Zrotation
							JOINT newVegas:Left_CapeA1
							{
								OFFSET 0.000000 -8.688499 0.000000
								CHANNELS 3 Xrotation Yrotation Zrotation
								End Site
								{
									OFFSET 0.000000 8.688499 0.000000
								}
							}
						}
					}
				}
				JOINT newVegas:RightShoulder
				{
					OFFSET -15.263000 10.923401 -0.547700
					CHANNELS 3 Xrotation Yrotation Zrotation
					JOINT newVegas:RightArm
					{
						OFFSET -25.438599 -2.830597 -13.032500
						CHANNELS 3 Xrotation Yrotation Zrotation
						JOINT newVegas:RightForeArm
						{
							OFFSET -29.960503 0.000000 0.000000
							CHANNELS 3 Xrotation Yrotation Zrotation
							JOINT newVegas:RightHand
							{
								OFFSET -27.849251 0.000000 0.000000
								CHANNELS 3 Xrotation Yrotation Zrotation
								JOINT newVegas:RightHandThumb1
								{
									OFFSET -4.487587 -3.305161 6.305391
									CHANNELS 3 Xrotation Yrotation Zrotation
									JOINT newVegas:RightHandThumb2
									{
										OFFSET -5.480453 -3.164139 3.164143
										CHANNELS 3 Xrotation Yrotation Zrotation
										JOINT newVegas:RightHandThumb3
										{
											OFFSET -5.159721 -2.978973 2.978967
											CHANNELS 3 Xrotation Yrotation Zrotation
											End Site
											{
												OFFSET -2.494507 5.926697 1.738678
											}
										}
									}
								}
								JOINT newVegas:RightHandIndex1
								{
									OFFSET -18.578728 -0.527832 5.208049
									CHANNELS 3 Xrotation Yrotation Zrotation
									JOINT newVegas:RightHandIndex2
									{
										OFFSET -3.192009 0.000000 0.000000
										CHANNELS 3 Xrotation Yrotation Zrotation
										JOINT newVegas:RightHandIndex3
										{
											OFFSET -3.835129 0.000000 0.000000
											CHANNELS 3 Xrotation Yrotation Zrotation
											End Site
											{
												OFFSET 0.034599 3.816971 0.371180
											}
										}
									}
								}
								JOINT newVegas:RightHandMiddle1
								{
									OFFSET -18.476105 0.000000 0.000000
									CHANNELS 3 Xrotation Yrotation Zrotation
									JOINT newVegas:RightHandMiddle2
									{
										OFFSET -3.324875 0.000000 0.000000
										CHANNELS 3 Xrotation Yrotation Zrotation
										JOINT newVegas:RightHandMiddle3
										{
											OFFSET -4.596550 0.000000 0.000000
											CHANNELS 3 Xrotation Yrotation Zrotation
											End Site
											{
												OFFSET -0.057701 4.578827 0.399218
											}
										}
									}
								}
								JOINT newVegas:RightHandRing1
								{
									OFFSET -17.732719 0.121887 -4.201567
									CHANNELS 3 Xrotation Yrotation Zrotation
									JOINT newVegas:RightHandRing2
									{
										OFFSET -2.733170 0.000000 0.000000
										CHANNELS 3 Xrotation Yrotation Zrotation
										JOINT newVegas:RightHandRing3
										{
											OFFSET -3.178268 0.000000 0.000000
											CHANNELS 3 Xrotation Yrotation Zrotation
											End Site
											{
												OFFSET -0.119102 3.170624 0.185394
											}
										}
									}
								}
								JOINT newVegas:RightHandPinky1
								{
									OFFSET -15.989624 -0.606689 -7.535461
									CHANNELS 3 Xrotation Yrotation Zrotation
									JOINT newVegas:RightHandPinky2
									{
										OFFSET -2.538986 0.000000 0.000000
										CHANNELS 3 Xrotation Yrotation Zrotation
										JOINT newVegas:RightHandPinky3
										{
											OFFSET -2.593102 0.000000 0.000000
											CHANNELS 3 Xrotation Yrotation Zrotation
											End Site
											{
												OFFSET 0.150902 2.584198 0.152708
											}
										}
									}
								}
							}
							JOINT newVegas:Right_CapeC
							{
								OFFSET -15.715958 -8.608795 -6.935905
								CHANNELS 3 Xrotation Yrotation Zrotation
								JOINT newVegas:Right_CapeC1
								{
									OFFSET 0.000000 -8.688499 0.000000
									CHANNELS 3 Xrotation Yrotation Zrotation
									End Site
									{
										OFFSET 0.000000 8.688499 0.000000
									}
								}
							}
							JOINT newVegas:Right_Sleeve
							{
								OFFSET -0.267448 -0.649994 0.577675
								CHANNELS 3 Xrotation Yrotation Zrotation
								End Site
								{
									OFFSET 0.000000 15.991302 0.000000
								}
							}
						}
						JOINT newVegas:Right_CapeA
						{
							OFFSET -5.115540 -8.608795 -10.395824
							CHANNELS 3 Xrotation Yrotation Zrotation
							JOINT newVegas:Right_CapeA1
							{
								OFFSET 0.000000 -8.688499 0.000000
								CHANNELS 3 Xrotation Yrotation Zrotation
								End Site
								{
									OFFSET 0.000000 8.688499 0.000000
								}
							}
						}
						JOINT newVegas:Right_CapeB
						{
							OFFSET -26.118187 -8.608795 -7.079266
							CHANNELS 3 Xrotation Yrotation Zrotation
							JOINT newVegas:Right_CapeB1
							{
								OFFSET 0.000000 -8.688499 0.000000
								CHANNELS 3 Xrotation Yrotation Zrotation
								End Site
								{
									OFFSET 0.000000 8.688499 0.000000
								}
							}
						}
					}
				}
				JOINT newVegas:Left_Collar
				{
					OFFSET 18.625099 8.655502 8.828100
					CHANNELS 3 Xrotation Yrotation Zrotation
					JOINT newVegas:Left_Collar1
					{
						OFFSET 14.783401 10.540405 -1.259500
						CHANNELS 3 Xrotation Yrotation Zrotation
						End Site
						{
							OFFSET 0.000000 18.199875 0.000000
						}
					}
				}
				JOINT newVegas:Collar_Back
				{
					OFFSET 0.000000 15.630707 -20.132601
					CHANNELS 3 Xrotation Yrotation Zrotation
					End Site
					{
						OFFSET 0.000000 22.523010 0.000000
					}
				}
				JOINT newVegas:Left_Peck
				{
					OFFSET 17.239599 -5.132599 25.482599
					CHANNELS 3 Xrotation Yrotation Zrotation
					End Site
					{
						OFFSET 0.000000 22.523010 0.000000
					}
				}
				JOINT newVegas:Right_Peck
				{
					OFFSET -17.239599 -5.132202 25.482599
					CHANNELS 3 Xrotation Yrotation Zrotation
					End Site
					{
						OFFSET 0.000000 22.523010 0.000000
					}
				}
				JOINT newVegas:Right_Collar
				{
					OFFSET -18.625099 8.655792 8.828100
					CHANNELS 3 Xrotation Yrotation Zrotation
					JOINT newVegas:Right_Collar1
					{
						OFFSET -14.783401 10.539993 -1.259500
						CHANNELS 3 Xrotation Yrotation Zrotation
						End Site
						{
							OFFSET 0.000000 18.199631 0.000000
						}
					}
				}
			}
		}
		JOINT newVegas:Belly
		{
			OFFSET 0.000000 -6.540398 9.014299
			CHANNELS 3 Xrotation Yrotation Zrotation
			End Site
			{
				OFFSET 0.000000 11.566666 0.000000
			}
		}
	}
	JOINT newVegas:ElvisFacialAnim_Joint
	{
		OFFSET 1.000000 -95.330101 -8.825800
		CHANNELS 3 Xrotation Yrotation Zrotation
		End Site
		{
			OFFSET 0.000000 35.315800 0.000000
		}
	}
}
MOTION
Frames: 4
Frame Time: 0.016667
-4.517290 87.896095 0.981177 -3.163121 -6.190821 4.947287 0.000001 -0.000000 0.000000 -68.397309 4.770721 7.827691 55.102220 -1.089349 -5.063305 4.508724 0.067317 -0.826220 0.000000 -0.000000 0.000000 0.000001 0.000000 -0.000000 -22.278076 -7.214951 -6.274426 56.965314 7.111511 3.503379 -31.167523 3.779803 -9.254457 0.000000 0.000000 -0.000000 -0.000003 0.000000 -0.000002 13.732090 0.081874 -3.959533 2.722913 0.133859 -0.943517 2.720023 0.135222 -0.952573 1.097404 0.148443 0.018805 1.097403 0.148442 0.018805 0.000002 0.000000 -0.000000 1.097331 0.148445 0.018804 1.097478 0.148436 0.018806 -0.000000 -0.000000 0.000000 0.000002 0.000000 -0.000000 0.619247 -1.200854 -10.994817 17.248873 -24.148533 -54.371581 -0.000005 -28.855370 0.000002 24.205854 -0.057570 -1.453782 -13.734196 9.516290 2.120162 12.920916 20.445751 20.805455 0.000001 -0.000002 -0.000005 0.624769 4.843184 -25.352351 0.379500 2.075989 -20.715404 0.000002 0.000001 -0.000003 0.442367 4.431067 -20.811028 0.385157 2.090947 -20.871755 -0.000000 -0.000001 0.000000 0.553779 4.704273 -23.698195 0.384473 2.089158 -20.852955 0.000000 -0.000001 0.000002 0.677173 4.972453 -26.586887 0.385159 2.090953 -20.871735 -0.000002 -0.000008 -0.000004 0.000002 -0.000001 -0.000000 0.000002 -0.000001 -0.000000 0.000002 -0.000001 -0.000000 0.000001 0.000001 0.000001 0.000001 0.000000 -0.000001 0.000001 0.000001 0.000001 -0.000000 0.000002 -0.000000 0.265367 6.336860 17.304040 14.561909 17.232543 47.386070 0.000008 42.148961 -0.000023 24.497969 9.178850 9.204392 -13.230993 -9.083834 -4.233068 14.743219 -13.848466 -17.282889 0.000001 -0.000002 -0.000001 0.733521 -4.698528 31.512375 0.755297 -2.544514 33.060130 0.000000 -0.000001 -0.000002 0.728933 -4.705634 31.511341 0.755263 -2.544467 33.059915 -0.000001 -0.000000 -0.000004 0.816090 -4.842837 33.512012 0.711535 -2.476071 32.061290 -0.000000 -0.000005 0.000001 0.908021 -4.976955 35.513319 0.755271 -2.544474 33.059932 -0.000001 0.000002 -0.000000 -0.000002 0.000000 0.000001 -0.000001 -0.000000 0.000001 -0.000002 -0.000000 0.000001 -0.000001 0.000002 -0.000001 -0.000000 0.000002 -0.000001 -0.000001 0.000002 -0.000001 -0.000000 0.000001 -0.000001 -0.000000 -0.000000 0.000000 -0.000000 -0.000000 0.000000 -0.000000 -0.000000 0.000000 -0.000000 -0.000000 0.000000 -0.000000 -0.000000 0.000000 -0.000000 -0.000000 0.000000 -0.000000 -0.000000 0.000000 -0.000000 -0.000001 0.000000 0.000001 -0.000000 0.000000 
-4.563196 87.579460 1.107250 -3.045633 -6.194423 4.774420 0.000000 0.000000 0.000000 -67.772292 4.497786 7.111280 50.062831 -1.145210 -4.748944 7.890667 0.105332 0.665008 -0.000001 0.000000 0.000000 -0.000001 -0.000000 -0.000000 -22.592423 -7.327137 -6.102913 57.706247 7.189546 3.501480 -31.676389 3.833974 -9.385535 0.000000 -0.000000 -0.000000 0.000001 0.000001 -0.000001 13.850221 0.249882 -3.645773 2.787336 0.158804 -0.935779 2.784215 0.161847 -0.946242 1.105206 0.146351 0.005817 1.105214 0.146352 0.005816 0.000001 0.000000 -0.000000 1.105203 0.146350 0.005817 1.105215 0.146355 0.005816 0.000001 -0.000001 0.000000 0.000001 0.000000 -0.000000 0.629832 -1.288736 -11.002617 17.403964 -24.407271 -54.849206 0.000001 -28.505436 -0.000002 25.130404 -0.221141 -1.029086 -13.734141 9.516094 2.120207 12.920900 20.445898 20.805385 -0.000001 -0.000001 -0.000006 0.626805 4.847521 -25.401774 0.414674 2.166695 -21.665872 -0.000001 0.000001 -0.000001 0.439033 4.422241 -20.716736 0.416241 2.170635 -21.707562 0.000002 -0.000002 -0.000001 0.551167 4.698273 -23.632074 0.415320 2.168377 -21.683644 -0.000001 0.000001 0.000002 0.675542 4.969171 -26.548968 0.416239 2.170623 -21.707572 -0.000000 -0.000002 -0.000002 0.000001 0.000000 -0.000000 0.000001 0.000000 -0.000000 -0.000000 0.000000 0.000000 0.000002 -0.000002 -0.000002 0.000002 -0.000002 -0.000002 0.000002 -0.000002 -0.000002 0.000000 -0.000001 -0.000003 0.222702 6.699102 17.382116 14.920429 17.286565 46.635992 -0.000001 43.116034 -0.000011 24.299868 9.494706 9.224539 -13.085048 -9.143590 -3.844985 14.660612 -13.964681 -17.694040 0.000001 -0.000002 -0.000001 0.754213 -4.732101 32.001492 0.777125 -2.577727 33.548865 -0.000002 -0.000001 0.000001 0.749946 -4.739694 32.000536 0.777109 -2.577699 33.548687 -0.000000 -0.000001 0.000002 0.838296 -4.876151 34.001344 0.732794 -2.509633 32.550011 0.000000 -0.000001 -0.000001 0.931368 -5.009470 36.002812 0.777118 -2.577681 33.548687 -0.000001 -0.000000 -0.000000 -0.000001 -0.000000 -0.000001 -0.000003 -0.000000 -0.000001 -0.000001 -0.000000 -0.000001 -0.000000 0.000001 0.000000 0.000000 0.000001 0.000000 -0.000000 0.000001 0.000000 -0.000000 -0.000000 0.000000 0.000000 -0.000000 -0.000000 0.000000 -0.000000 -0.000000 0.000000 -0.000000 -0.000000 0.000000 -0.000000 -0.000000 0.000000 -0.000000 -0.000000 0.000000 -0.000000 -0.000000 0.000000 -0.000000 -0.000000 0.000001 0.000000 0.000000 0.000000 0.000000 0.000000 
-4.607840 87.255821 1.243013 -2.865144 -6.308122 4.542595 -0.000000 0.000001 -0.000000 -67.038717 4.191393 6.456723 44.921679 -1.803541 -4.331350 11.951989 0.228795 2.265608 0.000000 -0.000000 -0.000000 0.000000 0.000000 -0.000000 -22.968246 -7.462360 -5.883412 58.394825 7.384340 3.503144 -32.111291 3.899352 -9.575515 0.000000 0.000000 0.000000 0.000001 -0.000001 -0.000002 13.964205 0.445658 -3.305938 2.847388 0.187926 -0.917955 2.844044 0.192474 -0.929923 1.111088 0.147420 -0.009034 1.111087 0.147420 -0.009035 -0.000001 -0.000000 0.000000 1.111007 0.147423 -0.009035 1.111145 0.147418 -0.009034 -0.000002 -0.000000 0.000000 -0.000001 -0.000000 0.000000 0.640729 -1.333960 -11.005096 17.374242 -24.472986 -55.481630 -0.000005 -28.210916 -0.000012 25.772447 -0.259539 -0.556248 -13.734047 9.515826 2.120267 12.920864 20.446108 20.805248 0.000000 0.000000 -0.000001 0.627448 4.848897 -25.418658 0.447875 2.248425 -22.528202 0.000001 0.000001 0.000002 0.435056 4.411600 -20.603354 0.446256 2.244516 -22.486730 -0.000000 -0.000001 0.000002 0.547664 4.690259 -23.544193 0.445579 2.242879 -22.469480 0.000002 0.000001 0.000002 0.672793 4.963665 -26.486668 0.446246 2.244520 -22.486726 0.000001 -0.000005 -0.000003 0.000003 -0.000000 0.000000 0.000003 -0.000000 0.000000 0.000002 -0.000000 0.000000 0.000000 0.000003 -0.000000 0.000000 0.000002 0.000000 0.000000 0.000003 -0.000000 -0.000001 0.000002 -0.000001 0.180821 7.065461 17.444802 15.301586 17.417513 45.815037 0.000002 44.069521 0.000007 24.288066 9.779406 9.317246 -12.936529 -9.203475 -3.451729 14.577106 -14.082829 -18.110737 0.000000 -0.000001 -0.000000 0.772975 -4.762060 32.439823 0.796960 -2.607340 33.987045 -0.000000 0.000001 0.000001 0.769056 -4.770120 32.439007 0.796944 -2.607331 33.986973 0.000001 0.000001 0.000001 0.858458 -4.905890 34.439928 0.752098 -2.539603 32.988260 -0.000001 -0.000003 0.000002 0.952572 -5.038485 36.441511 0.796937 -2.607315 33.986987 0.000002 0.000003 0.000002 0.000000 0.000001 -0.000001 0.000001 0.000000 -0.000002 0.000000 0.000001 -0.000002 -0.000000 -0.000001 -0.000000 0.000000 0.000000 -0.000001 -0.000000 -0.000001 -0.000000 0.000000 -0.000000 -0.000000 0.000000 -0.000000 -0.000000 0.000000 -0.000000 -0.000000 0.000000 -0.000000 -0.000000 0.000000 -0.000000 -0.000000 0.000000 -0.000000 -0.000000 0.000000 -0.000000 -0.000000 0.000000 -0.000000 -0.000000 -0.000000 0.000000 -0.000000 -0.000000 0.000001 -0.000000 
-4.657734 87.031883 1.245151 -2.601049 -6.442873 4.352927 -0.000000 -0.000000 -0.000000 -66.384275 3.705536 6.267050 41.101534 -1.817316 -3.918380 14.650066 0.249752 2.407019 -0.000001 0.000000 -0.000000 -0.000000 0.000000 -0.000000 -23.471281 -7.591349 -5.665766 58.831657 7.588186 3.501198 -32.250149 3.938727 -9.782652 0.000000 -0.000000 0.000000 0.000001 0.000000 -0.000002 14.080742 0.611579 -3.042161 2.901650 0.218671 -0.897720 2.898105 0.224245 -0.911136 1.114186 0.149852 -0.022533 1.114190 0.149849 -0.022532 -0.000000 0.000000 0.000000 1.114187 0.149857 -0.022534 1.114193 0.149845 -0.022532 -0.000002 0.000000 0.000000 -0.000000 0.000000 0.000000 0.651115 -1.376265 -11.000299 17.231058 -24.456445 -56.127612 0.000003 -27.965516 0.000004 26.138101 -0.195737 -0.169282 -13.733966 9.515507 2.120340 12.920844 20.446349 20.805111 0.000001 0.000000 -0.000004 0.626473 4.846811 -25.397582 0.478094 2.319896 -23.286459 -0.000002 -0.000000 0.000002 0.430242 4.398728 -20.466160 0.475169 2.313107 -23.214080 -0.000000 0.000001 -0.000001 0.543137 4.679807 -23.429753 0.474914 2.312472 -23.207613 0.000001 0.000001 0.000003 0.668761 4.955538 -26.394967 0.475162 2.313095 -23.214075 -0.000001 -0.000005 -0.000003 -0.000001 -0.000000 0.000000 -0.000001 -0.000000 0.000000 -0.000002 -0.000000 0.000000 -0.000002 0.000003 0.000002 -0.000002 0.000002 0.000000 -0.000002 0.000003 0.000002 -0.000003 0.000003 0.000001 0.141481 7.412044 17.493919 15.609458 17.553243 45.040279 0.000019 44.952665 -0.000022 24.556092 10.030619 9.405982 -12.785917 -9.263303 -3.054562 14.492977 -14.202482 -18.531606 -0.000000 -0.000001 -0.000002 0.789432 -4.787891 32.818977 0.814275 -2.632823 34.366319 -0.000001 0.000001 0.000001 0.785828 -4.796408 32.818335 0.814285 -2.632826 34.366329 0.000000 -0.000003 0.000005 0.876137 -4.931573 34.819379 0.768997 -2.565423 33.367591 0.000001 -0.000003 -0.000002 0.971149 -5.063536 36.821061 0.814297 -2.632826 34.366336 0.000003 0.000002 -0.000003 0.000001 -0.000001 0.000001 -0.000000 -0.000001 0.000001 0.000001 -0.000001 0.000001 -0.000000 0.000002 0.000001 -0.000000 0.000003 0.000001 -0.000000 0.000002 0.000001 -0.000000 0.000003 0.000001 0.000002 0.000000 -0.000000 0.000002 0.000000 -0.000000 0.000002 0.000000 -0.000000 0.000002 0.000000 -0.000000 0.000002 0.000000 -0.000000 0.000002 0.000000 -0.000000 0.000002 0.000000 -0.000000 -0.000000 -0.000000 -0.000000 -0.000000 -0.000000 -0.000000 
